<mxfile host="app.diagrams.net" agent="Mozilla/5.0 (Windows NT 10.0; Win64; x64) AppleWebKit/537.36 (KHTML, like Gecko) Chrome/138.0.0.0 Safari/537.36" version="28.0.6">
  <diagram name="High-Level Architecture" id="DqCzK2gFu2iiCxphEKKk">
    <mxGraphModel dx="601" dy="492" grid="1" gridSize="10" guides="1" tooltips="1" connect="1" arrows="1" fold="1" page="1" pageScale="1" pageWidth="850" pageHeight="1100" background="light-dark(#FFFFFF,#FFFFFF)" math="0" shadow="0">
      <root>
        <mxCell id="0" />
        <mxCell id="1" parent="0" />
        <mxCell id="eEVgvNDnGCvfOe_NM2tU-1" value="" style="rounded=0;whiteSpace=wrap;html=1;strokeWidth=1;strokeColor=light-dark(#dddada, #ededed);" vertex="1" parent="1">
          <mxGeometry x="120" y="120" width="120" height="360" as="geometry" />
        </mxCell>
        <mxCell id="eEVgvNDnGCvfOe_NM2tU-2" value="&lt;h1 style=&quot;margin-top: 0px;&quot;&gt;High-Level Architecture&lt;/h1&gt;" style="text;html=1;whiteSpace=wrap;overflow=hidden;rounded=0;" vertex="1" parent="1">
          <mxGeometry x="30" y="50" width="280" height="40" as="geometry" />
        </mxCell>
      </root>
    </mxGraphModel>
  </diagram>
</mxfile>
